<?xml version="1.0" encoding="UTF-8" standalone="no"?>
<!-- Created with Inkscape (http://www.inkscape.org/) -->

<svg
   xmlns:dc="http://purl.org/dc/elements/1.1/"
   xmlns:cc="http://creativecommons.org/ns#"
   xmlns:rdf="http://www.w3.org/1999/02/22-rdf-syntax-ns#"
   xmlns:svg="http://www.w3.org/2000/svg"
   xmlns="http://www.w3.org/2000/svg"
   xmlns:sodipodi="http://sodipodi.sourceforge.net/DTD/sodipodi-0.dtd"
   xmlns:inkscape="http://www.inkscape.org/namespaces/inkscape"
   version="1.1"
   id="svg21178"
   xml:space="preserve"
   width="793.70135"
   height="1122.52"
   viewBox="0 0 793.70135 1122.52"
   sodipodi:docname="pattern-zigzag-black.svg"
   inkscape:version="0.92.4 (5da689c313, 2019-01-14)"><metadata
     id="metadata21184"><rdf:RDF><cc:Work
         rdf:about=""><dc:format>image/svg+xml</dc:format><dc:type
           rdf:resource="http://purl.org/dc/dcmitype/StillImage" /><dc:title></dc:title></cc:Work></rdf:RDF></metadata><defs
     id="defs21182"><clipPath
       clipPathUnits="userSpaceOnUse"
       id="clipPath21194"><path
         d="M 0,841.89 H 595.276 V 0 H 0 Z"
         id="path21192"
         inkscape:connector-curvature="0" /></clipPath></defs><sodipodi:namedview
     pagecolor="#ffffff"
     bordercolor="#666666"
     borderopacity="1"
     objecttolerance="10"
     gridtolerance="10"
     guidetolerance="10"
     inkscape:pageopacity="0"
     inkscape:pageshadow="2"
     inkscape:window-width="1920"
     inkscape:window-height="1018"
     id="namedview21180"
     showgrid="false"
     inkscape:zoom="0.53441561"
     inkscape:cx="430.45789"
     inkscape:cy="499.42628"
     inkscape:window-x="-8"
     inkscape:window-y="-8"
     inkscape:window-maximized="1"
     inkscape:current-layer="g21186" /><g
     id="g21186"
     inkscape:groupmode="layer"
     inkscape:label="abstract-481-publicdomainvectors.org"
     transform="matrix(1.3333333,0,0,-1.3333333,0,1122.52)"><g
       id="g21188"><g
         id="g21190"
         clip-path="url(#clipPath21194)"><path
           d="m 589.201,841.62 c -11.781,-3.167 -23.838,-6.408 -36.18,-9.724 l -0.034,0.006 -0.045,-0.012 c -18.128,3.321 -35.837,6.563 -53.141,9.73 h 42.79 c 0.751,-0.134 1.504,-0.267 2.257,-0.401 0.517,0.134 1.035,0.267 1.552,0.401 z m -107.095,0 c -13.029,-3.167 -26.361,-6.409 -40.008,-9.73 -16.834,3.321 -33.278,6.56 -49.343,9.73 h 42.8 c 0.689,-0.132 1.38,-0.264 2.07,-0.396 0.563,0.132 1.126,0.264 1.688,0.396 z m -107.034,0 c -14.261,-3.166 -28.854,-6.407 -43.794,-9.724 -0.482,0.1 -0.964,0.203 -1.443,0.308 -0.469,-0.109 -0.948,-0.204 -1.417,-0.314 -15.499,3.321 -30.641,6.561 -45.435,9.73 h 42.796 c 1.101,-0.228 2.202,-0.457 3.307,-0.685 1.067,0.228 2.132,0.457 3.196,0.685 z m -109.764,0 c -15.534,-3.168 -31.434,-6.403 -47.706,-9.724 l -0.025,0.006 -0.061,-0.012 c -14.196,3.32 -28.064,6.563 -41.616,9.73 h 42.793 c 0.593,-0.134 1.185,-0.267 1.779,-0.401 0.679,0.134 1.357,0.267 2.034,0.401 z m -107.086,0 c -8.699,-1.642 -17.505,-3.301 -26.416,-4.984 -8.286,-1.561 -16.666,-3.139 -25.136,-4.746 -12.898,3.321 -25.499,6.561 -37.811,9.73 h 42.796 c 0.533,-0.132 1.067,-0.264 1.602,-0.396 0.72,0.132 1.44,0.264 2.159,0.396 z m -107.035,0 c -16.412,-2.887 -33.176,-5.83 -50.3,-8.84 v 8.84 h 1 c 0.836,-0.23 1.668,-0.459 2.488,-0.685 1.309,0.224 2.645,0.453 4,0.685 z m -50.3,-16.85 c 25.696,4.644 52.5,9.49 52.5,9.49 5.932,-1.592 11.931,-3.201 18,-4.827 l -0.004,-10e-4 c 9.242,-2.478 18.644,-4.999 28.213,-7.566 21.855,4.247 43.078,8.386 63.71,12.393 6.553,-1.592 13.184,-3.198 19.889,-4.826 l -0.005,-10e-4 c 10.219,-2.484 20.619,-5.006 31.204,-7.573 20.195,4.258 39.817,8.387 58.886,12.401 7.174,-1.597 14.441,-3.196 21.781,-4.827 l -0.007,-10e-4 c 11.663,-2.585 23.54,-5.218 35.634,-7.897 18.992,4.365 37.418,8.608 55.319,12.725 7.817,-1.593 15.722,-3.199 23.72,-4.827 l -0.005,-10e-4 c 12.178,-2.479 24.569,-4.999 37.177,-7.566 16.815,4.252 33.149,8.385 49.027,12.393 8.443,-1.581 16.974,-3.198 25.608,-4.826 l -0.004,-10e-4 c 13.157,-2.487 26.551,-5.001 40.175,-7.573 11.289,3.171 22.34,6.272 33.159,9.307 v -13.041 c -7.802,-2.292 -15.725,-4.618 -23.773,-6.979 l -0.035,0.008 -0.048,-0.014 c -23.506,4.563 -46.314,8.997 -68.456,13.296 -9.752,-2.561 -19.673,-5.176 -29.773,-7.836 -6.832,-1.796 -13.745,-3.616 -20.739,-5.46 -21.719,4.564 -42.796,8.992 -63.255,13.296 -18.014,-4.298 -36.566,-8.73 -55.687,-13.29 -0.518,0.119 -1.032,0.242 -1.55,0.355 -0.508,-0.12 -1.015,-0.236 -1.52,-0.361 -19.887,4.561 -39.183,8.992 -57.915,13.296 -19.739,-4.299 -40.07,-8.731 -61.023,-13.29 l -0.027,0.008 -0.065,-0.014 c -18.098,4.563 -35.656,8.997 -52.706,13.296 -12.79,-2.564 -25.804,-5.181 -39.056,-7.836 -8.96,-1.8 -18.029,-3.619 -27.209,-5.46 -16.307,4.565 -32.137,8.993 -47.499,13.296 -14.279,-2.657 -28.824,-5.362 -43.641,-8.118 z m 0,-17.44 c 18.957,3.632 34.118,6.537 34.118,6.537 6.255,-1.83 12.584,-3.686 18.994,-5.56 l -0.006,-10e-4 c 9.767,-2.864 19.721,-5.777 29.865,-8.744 23.733,4.919 46.736,9.69 69.05,14.305 6.972,-1.828 14.027,-3.683 21.17,-5.56 l -0.005,-10e-4 c 10.897,-2.864 22.001,-5.78 33.316,-8.751 21.821,4.918 42.971,9.688 63.482,14.312 7.687,-1.831 15.472,-3.682 23.348,-5.56 l -0.008,-10e-4 c 12.528,-2.979 25.297,-6.027 38.324,-9.128 20.382,5.056 40.121,9.949 59.251,14.689 8.423,-1.831 16.946,-3.688 25.581,-5.56 l -0.005,-10e-4 c 13.159,-2.858 26.562,-5.777 40.223,-8.744 17.909,4.917 35.266,9.686 52.102,14.305 9.141,-1.831 18.392,-3.684 27.757,-5.56 l -0.003,-10e-4 c 14.29,-2.862 28.845,-5.786 43.685,-8.751 4.62,1.421 9.2,2.829 13.738,4.225 v -15.747 c -0.945,-0.305 -1.892,-0.612 -2.842,-0.919 l -0.038,0.009 -0.051,-0.017 c -25.672,5.311 -50.53,10.445 -74.603,15.429 -10.35,-2.969 -20.895,-5.999 -31.649,-9.08 -7.278,-2.092 -14.653,-4.208 -22.126,-6.349 -23.594,5.31 -46.437,10.453 -68.565,15.429 -19.291,-4.976 -39.212,-10.113 -59.784,-15.421 -0.559,0.138 -1.116,0.277 -1.675,0.413 -0.546,-0.139 -1.095,-0.277 -1.638,-0.421 -21.463,5.31 -42.244,10.447 -62.368,15.429 -21.289,-4.982 -43.274,-10.111 -65.977,-15.421 l -0.029,0.009 -0.071,-0.017 c -19.383,5.31 -38.147,10.449 -56.322,15.429 -13.87,-2.967 -28.002,-5.994 -42.41,-9.08 -9.754,-2.089 -19.637,-4.203 -29.647,-6.349 -17.303,5.31 -34.057,10.449 -50.282,15.429 -7.886,-1.557 -15.852,-3.13 -23.9,-4.719 z m 0,-19.672 c 7.896,1.611 12.859,2.623 12.859,2.623 6.606,-2.132 13.303,-4.286 20.085,-6.475 l -0.006,-0.003 c 10.355,-3.337 20.919,-6.744 31.702,-10.22 25.966,5.752 51.069,11.316 75.355,16.698 7.438,-2.135 14.982,-4.288 22.621,-6.475 l -0.006,-0.002 c 11.67,-3.343 23.582,-6.748 35.734,-10.228 23.724,5.757 46.663,11.32 68.852,16.705 8.274,-2.134 16.665,-4.286 25.158,-6.475 l -0.008,-0.002 c 13.529,-3.48 27.345,-7.033 41.454,-10.67 21.997,5.914 43.246,11.623 63.783,17.147 9.131,-2.132 18.381,-4.291 27.757,-6.475 l -0.004,-0.003 c 14.307,-3.342 28.909,-6.741 43.81,-10.22 19.148,5.755 37.661,11.318 55.573,16.698 9.964,-2.133 20.06,-4.291 30.293,-6.475 l -0.004,-0.002 c 12.773,-2.733 25.763,-5.507 38.969,-8.329 V 763.72 c -20.639,4.565 -40.748,9.009 -60.343,13.345 -18.496,-5.833 -37.643,-11.868 -57.475,-18.119 -25.822,6.25 -50.752,12.289 -74.837,18.119 -20.77,-5.83 -42.267,-11.862 -64.534,-18.11 -0.611,0.158 -1.213,0.326 -1.822,0.488 -0.592,-0.167 -1.182,-0.335 -1.775,-0.498 -23.314,6.251 -45.82,12.287 -67.563,18.12 -23.108,-5.83 -47.03,-11.859 -71.804,-18.11 l -0.031,0.009 -0.077,-0.018 c -20.863,6.25 -41.006,12.286 -60.464,18.119 C 108.733,771.232 82.437,765.197 55.198,758.946 36.783,765.197 19.003,771.232 1.828,777.065 1.515,777 1.201,776.933 0.887,776.867 Z m 0,-29.283 c 3.073,-1.102 6.164,-2.21 9.275,-3.326 l -0.007,-10e-4 c 11.004,-3.945 22.251,-7.98 33.751,-12.104 28.65,6.82 56.266,13.396 82.906,19.741 7.977,-2.511 16.072,-5.053 24.28,-7.636 l -0.006,-10e-4 c 12.561,-3.949 25.396,-7.987 38.522,-12.114 25.995,6.82 51.047,13.405 75.215,19.751 8.962,-2.509 18.051,-5.055 27.273,-7.636 l -0.01,-10e-4 c 14.702,-4.117 29.746,-8.327 45.139,-12.638 23.888,7.013 46.894,13.766 69.066,20.275 9.969,-2.509 20.08,-5.052 30.336,-7.636 l -0.006,-10e-4 c 15.681,-3.944 31.706,-7.983 48.091,-12.104 20.567,6.821 40.393,13.399 59.519,19.741 10.95,-2.51 22.055,-5.059 33.328,-7.636 l -0.007,-10e-4 c 5.728,-1.313 11.499,-2.635 17.312,-3.968 v -13.537 c -13.599,3.232 -26.966,6.408 -40.104,9.53 -19.786,-6.922 -40.335,-14.111 -61.684,-21.58 -28.509,7.471 -55.947,14.657 -82.368,21.581 -22.486,-6.922 -45.838,-14.104 -70.099,-21.57 -0.665,0.195 -1.332,0.388 -1.996,0.583 -0.645,-0.198 -1.294,-0.396 -1.941,-0.595 -25.508,7.47 -50.057,14.659 -73.701,21.582 -25.264,-6.921 -51.5,-14.102 -78.757,-21.57 l -0.034,0.011 -0.085,-0.022 c -22.585,7.467 -44.317,14.658 -65.248,21.58 -27.99,-6.925 -57.054,-14.112 -87.255,-21.58 -10.441,3.968 -20.674,7.857 -30.705,11.668 z m 0,-45.188 c 5.648,-2.283 11.359,-4.591 17.135,-6.926 31.938,8.218 62.615,16.114 92.106,23.703 8.595,-2.999 17.325,-6.045 26.193,-9.139 l -0.007,-0.002 c 13.592,-4.739 27.51,-9.599 41.775,-14.574 28.737,8.22 56.335,16.121 82.869,23.715 9.769,-2.998 19.692,-6.044 29.771,-9.139 l -0.007,-0.002 c 16.099,-4.941 32.608,-10.009 49.542,-15.206 26.136,8.45 51.215,16.559 75.298,24.347 10.973,-2.999 22.121,-6.045 33.442,-9.139 l -0.005,-0.002 c 17.334,-4.739 35.094,-9.589 53.288,-14.562 22.201,8.218 43.527,16.114 64.027,23.703 9.401,-2.322 18.917,-4.671 28.55,-7.048 v -15.764 c -5.343,1.372 -10.65,2.735 -15.921,4.088 -21.255,-8.351 -43.406,-17.058 -66.514,-26.137 -31.812,9.081 -62.309,17.786 -91.567,26.137 -24.513,-8.347 -50.061,-17.049 -76.711,-26.123 -0.737,0.236 -1.474,0.472 -2.209,0.709 -0.711,-0.241 -1.422,-0.483 -2.134,-0.723 -28.166,9.081 -55.166,17.786 -81.071,26.137 -27.863,-8.347 -56.904,-17.049 -87.198,-26.123 l -0.037,0.014 -0.094,-0.028 c -24.61,9.079 -48.199,17.784 -70.831,26.137 -18.543,-4.97 -37.548,-10.067 -57.034,-15.29 -13.254,-3.557 -26.738,-7.17 -40.452,-10.847 -0.736,0.317 -1.47,0.634 -2.204,0.95 z M 282.44,681.665 h -54.376 c 15.801,4.965 28.237,8.877 28.237,8.877 0,0 16.504,-5.605 26.139,-8.877 m -169.751,0 H 58.315 c 17.746,4.965 31.714,8.877 31.714,8.877 0,0 14.309,-5.603 22.66,-8.877 m 482.175,0 h -23.14 c 11.861,4.967 21.196,8.877 21.196,8.877 0,0 0.71,-0.19 1.944,-0.521 z m -168.13,8.877 c 0,0 18.756,-5.603 29.703,-8.877 h -54.374 c 14.427,5.191 24.671,8.877 24.671,8.877"
           style="fill:#231f20;fill-opacity:1;fill-rule:nonzero;stroke:none"
           id="path21196"
           inkscape:connector-curvature="0" /><path
           d="M 0.887,58.432 C 18.557,39.665 36.88,20.201 55.894,0 H 293.51 c 34.448,29.252 67.132,56.994 98.154,83.35 C 427.008,57.032 464.255,29.288 503.578,0 h 91.286 v 55.527 c -75.849,50.583 -144.746,96.558 -207.642,138.503 -1.447,-1.087 -2.87,-2.192 -4.337,-3.277 -1.665,1.115 -3.32,2.232 -4.978,3.342 C 318.345,149.474 252.753,100.285 180.108,45.825 120.358,100.258 66.397,149.413 17.426,194.03 l -0.108,-0.062 c -0.031,0.049 -0.102,0.083 -0.145,0.127 -5.39,-3.123 -10.819,-6.269 -16.286,-9.437 z m 0,203.816 c 15.408,8.184 30.519,16.209 45.339,24.082 45.157,-35.986 94.4,-75.249 148.351,-118.231 26.335,17.657 51.701,34.667 76.15,51.071 l -0.019,0.012 c 36.568,24.509 71.164,47.727 103.976,69.733 60.781,-36.69 127.186,-76.81 200.101,-120.816 6.781,6.221 13.473,12.363 20.079,18.426 v 116.667 c -15.381,-12.346 -31.226,-25.063 -47.562,-38.165 -63.036,34.751 -121.085,66.795 -174.762,96.403 -1.196,-0.728 -2.386,-1.461 -3.59,-2.191 -1.339,0.752 -2.692,1.49 -4.031,2.238 -48.81,-29.621 -101.61,-61.664 -158.909,-96.45 -49.063,34.761 -94.261,66.795 -136.051,96.403 l -0.085,-0.042 c -0.028,0.036 -0.123,0.089 -0.123,0.089 C 47.479,350.555 24.535,339.303 0.887,327.706 Z m 0,121.746 c 30.694,13.977 60.24,27.423 88.687,40.379 38.925,-24.814 80.741,-51.484 125.804,-80.214 21.191,11.744 41.74,23.139 61.696,34.188 l -0.016,0.007 c 30.067,16.658 58.791,32.587 86.289,47.815 49.899,-25.317 103.581,-52.591 161.547,-82.01 16.475,11.742 32.453,23.137 47.968,34.188 l -0.014,0.008 c 7.445,5.301 14.783,10.529 22.016,15.683 v 72.374 c -27.897,-17.886 -57.366,-36.78 -88.54,-56.771 -51.269,24.102 -99.142,46.618 -143.949,67.696 -1.021,-0.521 -2.032,-1.05 -3.061,-1.567 -1.132,0.531 -2.254,1.07 -3.389,1.6 -41.349,-21.082 -85.525,-43.609 -132.826,-67.729 -41.578,24.11 -80.425,46.616 -116.765,67.696 l -0.072,-0.03 -0.107,0.063 C 72.647,463.134 37.597,448.234 0.887,432.631 Z m 0,91.322 c 12.042,4.798 23.905,9.522 35.592,14.176 l -0.007,0.004 c 29.056,11.585 57.065,22.739 84.07,33.497 34.145,-18.141 70.44,-37.433 109.114,-57.98 17.73,8.368 35.005,16.528 51.849,24.479 l -0.013,0.004 c 25.525,12.06 50.099,23.647 73.748,34.817 42.303,-18.526 87.344,-38.256 135.406,-59.3 14.369,8.368 28.366,16.529 42.019,24.479 l -0.01,0.006 c 19.864,11.565 38.994,22.721 57.455,33.469 1.581,-0.592 3.166,-1.184 4.754,-1.778 v 32.83 c -7.958,2.811 -15.834,5.592 -23.63,8.346 -29.531,-15.772 -60.809,-32.461 -93.971,-50.164 -43.174,17.697 -83.892,34.378 -122.344,50.141 -0.891,-0.389 -1.776,-0.788 -2.668,-1.179 -0.975,0.401 -1.95,0.799 -2.92,1.202 -35.867,-15.768 -73.843,-32.461 -114.114,-50.164 -36.069,17.695 -70.084,34.378 -102.207,50.141 l -0.06,-0.024 -0.097,0.047 C 91.344,546.797 47.428,530.326 0.887,512.875 Z m 0,88.363 c 6.278,-3.48 12.634,-7.004 19.07,-10.571 17.689,6.268 34.992,12.393 51.914,18.388 l -0.006,0.003 c 24.739,8.765 48.701,17.246 71.907,25.468 30.382,-13.84 62.432,-28.437 96.291,-43.859 15.235,6.268 30.137,12.395 44.714,18.388 l -0.012,0.003 c 22.183,9.123 43.636,17.943 64.391,26.479 36.716,-14.139 75.495,-29.076 116.525,-44.87 12.722,6.264 25.161,12.393 37.328,18.388 l -0.008,0.003 c 17.777,8.753 34.979,17.24 51.662,25.448 13.168,-4.406 26.566,-8.89 40.201,-13.453 v 26.457 c -18.693,5.944 -36.946,11.747 -54.774,17.416 -26.759,-12.234 -54.886,-25.105 -84.511,-38.646 -37.277,13.539 -72.686,26.396 -106.361,38.628 -0.785,-0.307 -1.579,-0.607 -2.364,-0.918 -0.856,0.314 -1.712,0.625 -2.568,0.936 -31.668,-12.238 -64.969,-25.099 -100.026,-38.646 -31.839,13.541 -62.084,26.398 -90.849,38.628 l -0.053,-0.016 -0.087,0.034 C 116.809,615.133 78.472,602.266 38.107,588.721 25.398,595.204 12.995,601.532 0.887,607.709 Z m 0,81.651 c 17.146,-8.099 34.889,-16.48 53.264,-25.157 15.264,4.866 30.231,9.639 44.908,14.317 l -0.005,0.002 c 21.527,6.864 42.447,13.532 62.787,20.017 27.356,-10.904 56.039,-22.335 86.146,-34.336 13.359,4.866 26.456,9.637 39.3,14.317 l -0.01,0.002 c 19.614,7.145 38.653,14.08 57.142,20.815 32.434,-11.144 66.478,-22.84 102.256,-35.134 11.403,4.868 22.584,9.641 33.554,14.317 l -0.009,0.004 c 16.066,6.856 31.688,13.518 46.872,19.997 21.933,-6.642 44.513,-13.481 67.772,-20.525 v 21.773 c -27.372,7.913 -53.81,15.559 -79.363,22.948 -24.43,-9.769 -49.978,-19.985 -76.72,-30.683 -32.791,10.69 -64.114,20.902 -94.064,30.668 -0.707,-0.244 -1.414,-0.488 -2.122,-0.733 -0.764,0.249 -1.53,0.499 -2.291,0.748 -28.351,-9.769 -57.999,-19.987 -89.039,-30.683 -28.497,10.69 -55.717,20.905 -81.748,30.668 l -0.047,-0.014 -0.077,0.029 c -32.178,-9.77 -65.83,-19.987 -101.06,-30.683 -14.727,6.483 -29.059,12.781 -43.003,18.912 -8.279,3.643 -16.426,7.225 -24.443,10.749 z m 281.579,36.84 h -54.31 c 14.316,-5.069 26.065,-9.232 26.065,-9.232 0,0 18.109,5.918 28.245,9.232 m -169.551,0 h -54.31 c 12.327,-5.071 22.448,-9.232 22.448,-9.232 0,0 20.427,5.918 31.862,9.232 m 481.949,0 h -23.451 c 9.108,-2.518 17.406,-4.813 23.451,-6.484 z m -163.141,-9.232 c 0,0 15.733,5.916 24.539,9.232 H 401.95 c 17.109,-5.306 29.773,-9.232 29.773,-9.232"
           style="fill:#231f20;fill-opacity:1;fill-rule:nonzero;stroke:none"
           id="path21198"
           inkscape:connector-curvature="0" /></g></g></g></svg>